{
  "asset": {
    "version": "2.0",
    "generator": "3dpea GLTFExporter"
  },
  "scenes": [
    {
      "name": "AuxScene",
      "nodes": [
        4
      ]
    }
  ],
  "scene": 0,
  "nodes": [
    {
      "name": "J1-PART1",
      "mesh": 0
    },
    {
      "name": "J1-PART2",
      "mesh": 1
    },
    {
      "name": "J1_ASM",
      "children": [
        0,
        1
      ]
    },
    {
      "name": "NOVA2_ASM_ASM",
      "children": [
        2
      ]
    },
    {
      "name": "J1_ASM",
      "children": [
        3
      ]
    }
  ],
  "bufferViews": [
    {
      "buffer": 0,
      "byteOffset": 0,
      "byteLength": 36384,
      "target": 34962,
      "byteStride": 12
    },
    {
      "buffer": 0,
      "byteOffset": 36384,
      "byteLength": 36384,
      "target": 34962,
      "byteStride": 12
    },
    {
      "buffer": 0,
      "byteOffset": 72768,
      "byteLength": 25032,
      "target": 34963
    },
    {
      "buffer": 0,
      "byteOffset": 97800,
      "byteLength": 53124,
      "target": 34962,
      "byteStride": 12
    },
    {
      "buffer": 0,
      "byteOffset": 150924,
      "byteLength": 53124,
      "target": 34962,
      "byteStride": 12
    },
    {
      "buffer": 0,
      "byteOffset": 204048,
      "byteLength": 35976,
      "target": 34963
    }
  ],
  "buffers": [
    {
      "byteLength": 240024,
      "uri": "data:application/octet-stream;base64,"
    }
  ],
  "accessors": [
    {
      "bufferView": 0,
      "componentType": 5126,
      "count": 3032,
      "max": [
        44.49856185913086,
        75.5999984741211,
        262.50006103515625
      ],
      "min": [
        -44.49855422973633,
        -46.49985885620117,
        129.89303588867188
      ],
      "type": "VEC3"
    },
    {
      "bufferView": 1,
      "componentType": 5126,
      "count": 3032,
      "max": [
        0.9999985694885254,
        1,
        1
      ],
      "min": [
        -0.9999985694885254,
        -1,
        -1
      ],
      "type": "VEC3"
    },
    {
      "bufferView": 2,
      "componentType": 5123,
      "count": 12516,
      "max": [
        3031
      ],
      "min": [
        0
      ],
      "type": "SCALAR"
    },
    {
      "bufferView": 3,
      "componentType": 5126,
      "count": 4427,
      "max": [
        44.14020538330078,
        -1.9995784759521484,
        262.5
      ],
      "min": [
        -44.14006423950195,
        -46.64985275268555,
        171.9996795654297
      ],
      "type": "VEC3"
    },
    {
      "bufferView": 4,
      "componentType": 5126,
      "count": 4427,
      "max": [
        0.999984085559845,
        1,
        0.9997527003288269
      ],
      "min": [
        -0.9999846816062927,
        -1,
        -1
      ],
      "type": "VEC3"
    },
    {
      "bufferView": 5,
      "componentType": 5123,
      "count": 17988,
      "max": [
        4426
      ],
      "min": [
        0
      ],
      "type": "SCALAR"
    }
  ],
  "materials": [
    {
      "pbrMetallicRoughness": {
        "baseColorFactor": [
          0.6038273388475408,
          0.6038273388475408,
          0.6038273388475408,
          1
        ],
        "metallicFactor": 0,
        "roughnessFactor": 0.3
      },
      "doubleSided": true,
      "name": "Mat_1"
    },
    {
      "pbrMetallicRoughness": {
        "baseColorFactor": [
          0.6038273572921753,
          0.6038273572921753,
          0.6038273572921753,
          1
        ],
        "metallicFactor": 0,
        "roughnessFactor": 0.3
      },
      "doubleSided": true,
      "name": "Mat_2"
    }
  ],
  "meshes": [
    {
      "primitives": [
        {
          "mode": 4,
          "attributes": {
            "POSITION": 0,
            "NORMAL": 1
          },
          "indices": 2,
          "material": 0
        }
      ]
    },
    {
      "primitives": [
        {
          "mode": 4,
          "attributes": {
            "POSITION": 3,
            "NORMAL": 4
          },
          "indices": 5,
          "material": 1
        }
      ]
    }
  ]
}