{
  "asset": {
    "version": "2.0",
    "generator": "3dpea GLTFExporter"
  },
  "scenes": [
    {
      "name": "AuxScene",
      "nodes": [
        4
      ]
    }
  ],
  "scene": 0,
  "nodes": [
    {
      "name": "J2-PART1",
      "mesh": 0
    },
    {
      "name": "J2-PART2",
      "mesh": 1
    },
    {
      "name": "J2_ASM",
      "children": [
        0,
        1
      ]
    },
    {
      "name": "NOVA2_ASM_ASM",
      "children": [
        2
      ]
    },
    {
      "name": "J2_ASM",
      "extras": {
        "nowCenter": true
      },
      "children": [
        3
      ]
    }
  ],
  "bufferViews": [
    {
      "buffer": 0,
      "byteOffset": 0,
      "byteLength": 67572,
      "target": 34962,
      "byteStride": 12
    },
    {
      "buffer": 0,
      "byteOffset": 67572,
      "byteLength": 67572,
      "target": 34962,
      "byteStride": 12
    },
    {
      "buffer": 0,
      "byteOffset": 135144,
      "byteLength": 45276,
      "target": 34963
    },
    {
      "buffer": 0,
      "byteOffset": 180420,
      "byteLength": 159624,
      "target": 34962,
      "byteStride": 12
    },
    {
      "buffer": 0,
      "byteOffset": 340044,
      "byteLength": 159624,
      "target": 34962,
      "byteStride": 12
    },
    {
      "buffer": 0,
      "byteOffset": 499668,
      "byteLength": 133392,
      "target": 34963
    }
  ],
  "buffers": [
    {
      "byteLength": 633060,
      "uri": "data:application/octet-stream;base64,"
    }
  ],
  "accessors": [
    {
      "bufferView": 0,
      "componentType": 5126,
      "count": 5631,
      "max": [
        44.99873733520508,
        119.50003814697266,
        539.2579345703125
      ],
      "min": [
        -44.99874496459961,
        22.5,
        172.574951171875
      ],
      "type": "VEC3"
    },
    {
      "bufferView": 1,
      "componentType": 5126,
      "count": 5631,
      "max": [
        1,
        1,
        1
      ],
      "min": [
        -1,
        -1,
        -0.9997934103012085
      ],
      "type": "VEC3"
    },
    {
      "bufferView": 2,
      "componentType": 5123,
      "count": 22638,
      "max": [
        5630
      ],
      "min": [
        0
      ],
      "type": "SCALAR"
    },
    {
      "bufferView": 3,
      "componentType": 5126,
      "count": 13302,
      "max": [
        45.000675201416016,
        151.99346923828125,
        539.2566528320312
      ],
      "min": [
        -44.99332809448242,
        115,
        172.57455444335938
      ],
      "type": "VEC3"
    },
    {
      "bufferView": 4,
      "componentType": 5126,
      "count": 13302,
      "max": [
        1,
        1,
        1
      ],
      "min": [
        -1,
        -1,
        -1
      ],
      "type": "VEC3"
    },
    {
      "bufferView": 5,
      "componentType": 5123,
      "count": 66696,
      "max": [
        13301
      ],
      "min": [
        0
      ],
      "type": "SCALAR"
    }
  ],
  "materials": [
    {
      "pbrMetallicRoughness": {
        "baseColorFactor": [
          0.6038273388475408,
          0.6038273388475408,
          0.6038273388475408,
          1
        ],
        "metallicFactor": 0,
        "roughnessFactor": 0.3
      },
      "doubleSided": true,
      "name": "Mat_1"
    },
    {
      "pbrMetallicRoughness": {
        "baseColorFactor": [
          0.6038273572921753,
          0.6038273572921753,
          0.6038273572921753,
          1
        ],
        "metallicFactor": 0,
        "roughnessFactor": 0.3
      },
      "doubleSided": true,
      "name": "Mat_2"
    }
  ],
  "meshes": [
    {
      "primitives": [
        {
          "mode": 4,
          "attributes": {
            "POSITION": 0,
            "NORMAL": 1
          },
          "indices": 2,
          "material": 0
        }
      ]
    },
    {
      "primitives": [
        {
          "mode": 4,
          "attributes": {
            "POSITION": 3,
            "NORMAL": 4
          },
          "indices": 5,
          "material": 1
        }
      ]
    }
  ]
}