{
  "asset": {
    "version": "2.0",
    "generator": "3dpea GLTFExporter"
  },
  "scenes": [
    {
      "name": "AuxScene",
      "nodes": [
        4
      ]
    }
  ],
  "scene": 0,
  "nodes": [
    {
      "name": "J3-PART1",
      "mesh": 0
    },
    {
      "name": "J3-PART2",
      "mesh": 1
    },
    {
      "name": "J3_ASM",
      "children": [
        0,
        1
      ]
    },
    {
      "name": "NOVA2_ASM_ASM",
      "children": [
        2
      ]
    },
    {
      "name": "J3_ASM",
      "children": [
        3
      ]
    }
  ],
  "bufferViews": [
    {
      "buffer": 0,
      "byteOffset": 0,
      "byteLength": 134832,
      "target": 34962,
      "byteStride": 12
    },
    {
      "buffer": 0,
      "byteOffset": 134832,
      "byteLength": 134832,
      "target": 34962,
      "byteStride": 12
    },
    {
      "buffer": 0,
      "byteOffset": 269664,
      "byteLength": 104988,
      "target": 34963
    },
    {
      "buffer": 0,
      "byteOffset": 374652,
      "byteLength": 55944,
      "target": 34962,
      "byteStride": 12
    },
    {
      "buffer": 0,
      "byteOffset": 430596,
      "byteLength": 55944,
      "target": 34962,
      "byteStride": 12
    },
    {
      "buffer": 0,
      "byteOffset": 486540,
      "byteLength": 40092,
      "target": 34963
    }
  ],
  "buffers": [
    {
      "byteLength": 526632,
      "uri": "data:application/octet-stream;base64,"
    }
  ],
  "accessors": [
    {
      "bufferView": 0,
      "componentType": 5126,
      "count": 11236,
      "max": [
        40.998538970947266,
        -11.5,
        758.8712768554688
      ],
      "min": [
        -40.9985466003418,
        -44.682594299316406,
        457.1264343261719
      ],
      "type": "VEC3"
    },
    {
      "bufferView": 1,
      "componentType": 5126,
      "count": 11236,
      "max": [
        1,
        1,
        1
      ],
      "min": [
        -1,
        -1,
        -1
      ],
      "type": "VEC3"
    },
    {
      "bufferView": 2,
      "componentType": 5123,
      "count": 52494,
      "max": [
        11235
      ],
      "min": [
        0
      ],
      "type": "SCALAR"
    },
    {
      "bufferView": 3,
      "componentType": 5126,
      "count": 4662,
      "max": [
        40.999977111816406,
        72.5,
        758.864013671875
      ],
      "min": [
        -40.99996566772461,
        -16,
        457.135986328125
      ],
      "type": "VEC3"
    },
    {
      "bufferView": 4,
      "componentType": 5126,
      "count": 4662,
      "max": [
        0.9998974800109863,
        1,
        1
      ],
      "min": [
        -0.999961793422699,
        -1,
        -1
      ],
      "type": "VEC3"
    },
    {
      "bufferView": 5,
      "componentType": 5123,
      "count": 20046,
      "max": [
        4661
      ],
      "min": [
        0
      ],
      "type": "SCALAR"
    }
  ],
  "materials": [
    {
      "pbrMetallicRoughness": {
        "baseColorFactor": [
          0.6038273388475408,
          0.6038273388475408,
          0.6038273388475408,
          1
        ],
        "metallicFactor": 0,
        "roughnessFactor": 0.3
      },
      "doubleSided": true,
      "name": "Mat_1"
    },
    {
      "pbrMetallicRoughness": {
        "baseColorFactor": [
          0.6038273572921753,
          0.6038273572921753,
          0.6038273572921753,
          1
        ],
        "metallicFactor": 0,
        "roughnessFactor": 0.3
      },
      "doubleSided": true,
      "name": "Mat_2"
    }
  ],
  "meshes": [
    {
      "primitives": [
        {
          "mode": 4,
          "attributes": {
            "POSITION": 0,
            "NORMAL": 1
          },
          "indices": 2,
          "material": 0
        }
      ]
    },
    {
      "primitives": [
        {
          "mode": 4,
          "attributes": {
            "POSITION": 3,
            "NORMAL": 4
          },
          "indices": 5,
          "material": 1
        }
      ]
    }
  ]
}