{
  "asset": {
    "version": "2.0",
    "generator": "3dpea GLTFExporter"
  },
  "scenes": [
    {
      "name": "AuxScene",
      "nodes": [
        4
      ]
    }
  ],
  "scene": 0,
  "nodes": [
    {
      "name": "J4-PART1",
      "mesh": 0
    },
    {
      "name": "J4-PART2",
      "mesh": 1
    },
    {
      "name": "J4_ASM",
      "children": [
        0,
        1
      ]
    },
    {
      "name": "NOVA2_ASM_ASM",
      "children": [
        2
      ]
    },
    {
      "name": "J4_ASM",
      "children": [
        3
      ]
    }
  ],
  "bufferViews": [
    {
      "buffer": 0,
      "byteOffset": 0,
      "byteLength": 46536,
      "target": 34962,
      "byteStride": 12
    },
    {
      "buffer": 0,
      "byteOffset": 46536,
      "byteLength": 46536,
      "target": 34962,
      "byteStride": 12
    },
    {
      "buffer": 0,
      "byteOffset": 93072,
      "byteLength": 33912,
      "target": 34963
    },
    {
      "buffer": 0,
      "byteOffset": 126984,
      "byteLength": 79080,
      "target": 34962,
      "byteStride": 12
    },
    {
      "buffer": 0,
      "byteOffset": 206064,
      "byteLength": 79080,
      "target": 34962,
      "byteStride": 12
    },
    {
      "buffer": 0,
      "byteOffset": 285144,
      "byteLength": 55368,
      "target": 34963
    }
  ],
  "buffers": [
    {
      "byteLength": 340512,
      "uri": "data:application/octet-stream;base64,"
    }
  ],
  "accessors": [
    {
      "bufferView": 0,
      "componentType": 5126,
      "count": 3878,
      "max": [
        35.499855041503906,
        150.49989318847656,
        799.5
      ],
      "min": [
        -35.50018310546875,
        44.00001907348633,
        688
      ],
      "type": "VEC3"
    },
    {
      "bufferView": 1,
      "componentType": 5126,
      "count": 3878,
      "max": [
        1,
        0.9999993443489075,
        1
      ],
      "min": [
        -0.999999463558197,
        -1,
        -1
      ],
      "type": "VEC3"
    },
    {
      "bufferView": 2,
      "componentType": 5123,
      "count": 16956,
      "max": [
        3877
      ],
      "min": [
        0
      ],
      "type": "SCALAR"
    },
    {
      "bufferView": 3,
      "componentType": 5126,
      "count": 6590,
      "max": [
        35.02117919921875,
        150.34971618652344,
        759
      ],
      "min": [
        -35.02111053466797,
        80.28109741210938,
        688.050048828125
      ],
      "type": "VEC3"
    },
    {
      "bufferView": 4,
      "componentType": 5126,
      "count": 6590,
      "max": [
        0.9999122023582458,
        0.9998307228088379,
        1
      ],
      "min": [
        -0.9999122023582458,
        -0.9999346733093262,
        -1
      ],
      "type": "VEC3"
    },
    {
      "bufferView": 5,
      "componentType": 5123,
      "count": 27684,
      "max": [
        6589
      ],
      "min": [
        0
      ],
      "type": "SCALAR"
    }
  ],
  "materials": [
    {
      "pbrMetallicRoughness": {
        "baseColorFactor": [
          0.6038273388475408,
          0.6038273388475408,
          0.6038273388475408,
          1
        ],
        "metallicFactor": 0,
        "roughnessFactor": 0.3
      },
      "doubleSided": true,
      "name": "Mat_1"
    },
    {
      "pbrMetallicRoughness": {
        "baseColorFactor": [
          0.6038273572921753,
          0.6038273572921753,
          0.6038273572921753,
          1
        ],
        "metallicFactor": 0,
        "roughnessFactor": 0.3
      },
      "doubleSided": true,
      "name": "Mat_2"
    }
  ],
  "meshes": [
    {
      "primitives": [
        {
          "mode": 4,
          "attributes": {
            "POSITION": 0,
            "NORMAL": 1
          },
          "indices": 2,
          "material": 0
        }
      ]
    },
    {
      "primitives": [
        {
          "mode": 4,
          "attributes": {
            "POSITION": 3,
            "NORMAL": 4
          },
          "indices": 5,
          "material": 1
        }
      ]
    }
  ]
}