{
  "asset": {
    "version": "2.0",
    "generator": "3dpea GLTFExporter"
  },
  "scenes": [
    {
      "name": "AuxScene",
      "nodes": [
        7
      ]
    }
  ],
  "scene": 0,
  "nodes": [
    {
      "name": "J5-PART1",
      "mesh": 0
    },
    {
      "name": "J5-PART2",
      "mesh": 1
    },
    {
      "name": "J5-PART3",
      "mesh": 2
    },
    {
      "name": "J5-PART4",
      "mesh": 3
    },
    {
      "name": "J5-PART5",
      "mesh": 4
    },
    {
      "name": "J5_ASM",
      "children": [
        0,
        1,
        2,
        3,
        4
      ]
    },
    {
      "name": "NOVA2_ASM_ASM",
      "children": [
        5
      ]
    },
    {
      "name": "J5_ASM",
      "children": [
        6
      ]
    }
  ],
  "bufferViews": [
    {
      "buffer": 0,
      "byteOffset": 0,
      "byteLength": 56532,
      "target": 34962,
      "byteStride": 12
    },
    {
      "buffer": 0,
      "byteOffset": 56532,
      "byteLength": 56532,
      "target": 34962,
      "byteStride": 12
    },
    {
      "buffer": 0,
      "byteOffset": 113064,
      "byteLength": 39380,
      "target": 34963
    },
    {
      "buffer": 0,
      "byteOffset": 152444,
      "byteLength": 101760,
      "target": 34962,
      "byteStride": 12
    },
    {
      "buffer": 0,
      "byteOffset": 254204,
      "byteLength": 101760,
      "target": 34962,
      "byteStride": 12
    },
    {
      "buffer": 0,
      "byteOffset": 355964,
      "byteLength": 74496,
      "target": 34963
    },
    {
      "buffer": 0,
      "byteOffset": 430460,
      "byteLength": 176784,
      "target": 34962,
      "byteStride": 12
    },
    {
      "buffer": 0,
      "byteOffset": 607244,
      "byteLength": 176784,
      "target": 34962,
      "byteStride": 12
    },
    {
      "buffer": 0,
      "byteOffset": 784028,
      "byteLength": 135696,
      "target": 34963
    },
    {
      "buffer": 0,
      "byteOffset": 919724,
      "byteLength": 71736,
      "target": 34962,
      "byteStride": 12
    },
    {
      "buffer": 0,
      "byteOffset": 991460,
      "byteLength": 71736,
      "target": 34962,
      "byteStride": 12
    },
    {
      "buffer": 0,
      "byteOffset": 1063196,
      "byteLength": 47892,
      "target": 34963
    },
    {
      "buffer": 0,
      "byteOffset": 1111088,
      "byteLength": 29136,
      "target": 34962,
      "byteStride": 12
    },
    {
      "buffer": 0,
      "byteOffset": 1140224,
      "byteLength": 29136,
      "target": 34962,
      "byteStride": 12
    },
    {
      "buffer": 0,
      "byteOffset": 1169360,
      "byteLength": 22320,
      "target": 34963
    }
  ],
  "buffers": [
    {
      "byteLength": 1191680,
      "uri": "data:application/octet-stream;base64,"
    }
  ],
  "accessors": [
    {
      "bufferView": 0,
      "componentType": 5126,
      "count": 4711,
      "max": [
        35.76835250854492,
        180,
        878.2692260742188
      ],
      "min": [
        -35.757205963134766,
        69.49999237060547,
        786.994873046875
      ],
      "type": "VEC3"
    },
    {
      "bufferView": 1,
      "componentType": 5126,
      "count": 4711,
      "max": [
        0.9999874830245972,
        1,
        1
      ],
      "min": [
        -0.9999995231628418,
        -1,
        -1
      ],
      "type": "VEC3"
    },
    {
      "bufferView": 2,
      "componentType": 5123,
      "count": 19689,
      "max": [
        4710
      ],
      "min": [
        0
      ],
      "type": "SCALAR"
    },
    {
      "bufferView": 3,
      "componentType": 5126,
      "count": 8480,
      "max": [
        35.38391876220703,
        137.50009155273438,
        878.3734741210938
      ],
      "min": [
        -35.384220123291016,
        53.716552734375,
        808.4571533203125
      ],
      "type": "VEC3"
    },
    {
      "bufferView": 4,
      "componentType": 5126,
      "count": 8480,
      "max": [
        0.9999973177909851,
        1,
        0.9998993277549744
      ],
      "min": [
        -0.9999974370002747,
        -1,
        -1
      ],
      "type": "VEC3"
    },
    {
      "bufferView": 5,
      "componentType": 5123,
      "count": 37248,
      "max": [
        8479
      ],
      "min": [
        0
      ],
      "type": "SCALAR"
    },
    {
      "bufferView": 6,
      "componentType": 5126,
      "count": 14732,
      "max": [
        28.249835968017578,
        62.5000114440918,
        871.25
      ],
      "min": [
        -28.250164031982422,
        56.015533447265625,
        814.75
      ],
      "type": "VEC3"
    },
    {
      "bufferView": 7,
      "componentType": 5126,
      "count": 14732,
      "max": [
        1,
        1,
        1
      ],
      "min": [
        -1,
        -1,
        -1
      ],
      "type": "VEC3"
    },
    {
      "bufferView": 8,
      "componentType": 5123,
      "count": 67848,
      "max": [
        14731
      ],
      "min": [
        0
      ],
      "type": "SCALAR"
    },
    {
      "bufferView": 9,
      "componentType": 5126,
      "count": 5978,
      "max": [
        17.499835968017578,
        58.51173782348633,
        860.5
      ],
      "min": [
        -17.500164031982422,
        53.49996566772461,
        825.5
      ],
      "type": "VEC3"
    },
    {
      "bufferView": 10,
      "componentType": 5126,
      "count": 5978,
      "max": [
        1,
        1,
        1
      ],
      "min": [
        -1,
        -0.999995231628418,
        -1
      ],
      "type": "VEC3"
    },
    {
      "bufferView": 11,
      "componentType": 5123,
      "count": 23946,
      "max": [
        5977
      ],
      "min": [
        0
      ],
      "type": "SCALAR"
    },
    {
      "bufferView": 12,
      "componentType": 5126,
      "count": 2428,
      "max": [
        34.49983596801758,
        167,
        877.5
      ],
      "min": [
        -34.50016403198242,
        160.5,
        808.5
      ],
      "type": "VEC3"
    },
    {
      "bufferView": 13,
      "componentType": 5126,
      "count": 2428,
      "max": [
        0.9999997019767761,
        1,
        0.9998474717140198
      ],
      "min": [
        -0.9999997019767761,
        -1,
        -0.9998474717140198
      ],
      "type": "VEC3"
    },
    {
      "bufferView": 14,
      "componentType": 5123,
      "count": 11160,
      "max": [
        2427
      ],
      "min": [
        0
      ],
      "type": "SCALAR"
    }
  ],
  "materials": [
    {
      "pbrMetallicRoughness": {
        "baseColorFactor": [
          0.6038273388475408,
          0.6038273388475408,
          0.6038273388475408,
          1
        ],
        "metallicFactor": 0,
        "roughnessFactor": 0.3
      },
      "doubleSided": true,
      "name": "Mat_1"
    },
    {
      "pbrMetallicRoughness": {
        "baseColorFactor": [
          0.6038273572921753,
          0.6038273572921753,
          0.6038273572921753,
          1
        ],
        "metallicFactor": 0,
        "roughnessFactor": 0.3
      },
      "doubleSided": true,
      "name": "Mat_2"
    },
    {
      "pbrMetallicRoughness": {
        "baseColorFactor": [
          0.6038273572921753,
          0.6038273572921753,
          0.6038273572921753,
          1
        ],
        "metallicFactor": 0,
        "roughnessFactor": 0.3
      },
      "doubleSided": true,
      "name": "Mat_3"
    },
    {
      "pbrMetallicRoughness": {
        "baseColorFactor": [
          0.6038273572921753,
          0.6038273572921753,
          0.6038273572921753,
          1
        ],
        "metallicFactor": 0,
        "roughnessFactor": 0.3
      },
      "doubleSided": true,
      "name": "Mat_4"
    },
    {
      "pbrMetallicRoughness": {
        "baseColorFactor": [
          0.6038273572921753,
          0.6038273572921753,
          0.6038273572921753,
          1
        ],
        "metallicFactor": 0,
        "roughnessFactor": 0.3
      },
      "doubleSided": true,
      "name": "Mat_5"
    }
  ],
  "meshes": [
    {
      "primitives": [
        {
          "mode": 4,
          "attributes": {
            "POSITION": 0,
            "NORMAL": 1
          },
          "indices": 2,
          "material": 0
        }
      ]
    },
    {
      "primitives": [
        {
          "mode": 4,
          "attributes": {
            "POSITION": 3,
            "NORMAL": 4
          },
          "indices": 5,
          "material": 1
        }
      ]
    },
    {
      "primitives": [
        {
          "mode": 4,
          "attributes": {
            "POSITION": 6,
            "NORMAL": 7
          },
          "indices": 8,
          "material": 2
        }
      ]
    },
    {
      "primitives": [
        {
          "mode": 4,
          "attributes": {
            "POSITION": 9,
            "NORMAL": 10
          },
          "indices": 11,
          "material": 3
        }
      ]
    },
    {
      "primitives": [
        {
          "mode": 4,
          "attributes": {
            "POSITION": 12,
            "NORMAL": 13
          },
          "indices": 14,
          "material": 4
        }
      ]
    }
  ]
}