{
  "asset": {
    "version": "2.0",
    "generator": "3dpea GLTFExporter"
  },
  "scenes": [
    {
      "name": "AuxScene",
      "nodes": [
        7
      ]
    }
  ],
  "scene": 0,
  "nodes": [
    {
      "name": "J6-PART1",
      "mesh": 0
    },
    {
      "name": "J6-PART2",
      "mesh": 1
    },
    {
      "name": "J6-PART3",
      "mesh": 2
    },
    {
      "name": "GB_T70P3_M2P5X6_2_1_1_2_1_1_1_1",
      "mesh": 3
    },
    {
      "name": "GB_T70P3_M2P5X6_2_1_1_2_1_1_1_1",
      "mesh": 4
    },
    {
      "name": "J6_ASM",
      "children": [
        0,
        1,
        2,
        3,
        4
      ]
    },
    {
      "name": "NOVA2_ASM_ASM",
      "children": [
        5
      ]
    },
    {
      "name": "J6_ASM",
      "children": [
        6
      ]
    }
  ],
  "bufferViews": [
    {
      "buffer": 0,
      "byteOffset": 0,
      "byteLength": 92604,
      "target": 34962,
      "byteStride": 12
    },
    {
      "buffer": 0,
      "byteOffset": 92604,
      "byteLength": 92604,
      "target": 34962,
      "byteStride": 12
    },
    {
      "buffer": 0,
      "byteOffset": 185208,
      "byteLength": 54204,
      "target": 34963
    },
    {
      "buffer": 0,
      "byteOffset": 239412,
      "byteLength": 21984,
      "target": 34962,
      "byteStride": 12
    },
    {
      "buffer": 0,
      "byteOffset": 261396,
      "byteLength": 21984,
      "target": 34962,
      "byteStride": 12
    },
    {
      "buffer": 0,
      "byteOffset": 283380,
      "byteLength": 10536,
      "target": 34963
    },
    {
      "buffer": 0,
      "byteOffset": 293916,
      "byteLength": 210312,
      "target": 34962,
      "byteStride": 12
    },
    {
      "buffer": 0,
      "byteOffset": 504228,
      "byteLength": 210312,
      "target": 34962,
      "byteStride": 12
    },
    {
      "buffer": 0,
      "byteOffset": 714540,
      "byteLength": 141468,
      "target": 34963
    },
    {
      "buffer": 0,
      "byteOffset": 856008,
      "byteLength": 8928,
      "target": 34962,
      "byteStride": 12
    },
    {
      "buffer": 0,
      "byteOffset": 864936,
      "byteLength": 8928,
      "target": 34962,
      "byteStride": 12
    },
    {
      "buffer": 0,
      "byteOffset": 873864,
      "byteLength": 4872,
      "target": 34963
    },
    {
      "buffer": 0,
      "byteOffset": 878736,
      "byteLength": 8928,
      "target": 34962,
      "byteStride": 12
    },
    {
      "buffer": 0,
      "byteOffset": 887664,
      "byteLength": 8928,
      "target": 34962,
      "byteStride": 12
    },
    {
      "buffer": 0,
      "byteOffset": 896592,
      "byteLength": 4872,
      "target": 34963
    }
  ],
  "buffers": [
    {
      "byteLength": 901464,
      "uri": "data:application/octet-stream;base64,"
    }
  ],
  "accessors": [
    {
      "bufferView": 0,
      "componentType": 5126,
      "count": 7717,
      "max": [
        34.99983596801758,
        203.5,
        878
      ],
      "min": [
        -35.00016403198242,
        167.5,
        808
      ],
      "type": "VEC3"
    },
    {
      "bufferView": 1,
      "componentType": 5126,
      "count": 7717,
      "max": [
        1,
        1,
        1
      ],
      "min": [
        -1,
        -1,
        -1
      ],
      "type": "VEC3"
    },
    {
      "bufferView": 2,
      "componentType": 5123,
      "count": 27102,
      "max": [
        7716
      ],
      "min": [
        0
      ],
      "type": "SCALAR"
    },
    {
      "bufferView": 3,
      "componentType": 5126,
      "count": 1832,
      "max": [
        24.89983558654785,
        203.1999969482422,
        862
      ],
      "min": [
        -24.900163650512695,
        195.1999969482422,
        824
      ],
      "type": "VEC3"
    },
    {
      "bufferView": 4,
      "componentType": 5126,
      "count": 1832,
      "max": [
        0.9993318319320679,
        1,
        1
      ],
      "min": [
        -1,
        -1,
        -1
      ],
      "type": "VEC3"
    },
    {
      "bufferView": 5,
      "componentType": 5123,
      "count": 5268,
      "max": [
        1831
      ],
      "min": [
        0
      ],
      "type": "SCALAR"
    },
    {
      "bufferView": 6,
      "componentType": 5126,
      "count": 17526,
      "max": [
        5.771430015563965,
        196.57257080078125,
        829.082763671875
      ],
      "min": [
        -5.771758079528809,
        186.42742919921875,
        801.5
      ],
      "type": "VEC3"
    },
    {
      "bufferView": 7,
      "componentType": 5126,
      "count": 17526,
      "max": [
        0.9999029040336609,
        1,
        1
      ],
      "min": [
        -1,
        -1,
        -1
      ],
      "type": "VEC3"
    },
    {
      "bufferView": 8,
      "componentType": 5123,
      "count": 70734,
      "max": [
        17525
      ],
      "min": [
        0
      ],
      "type": "SCALAR"
    },
    {
      "bufferView": 9,
      "componentType": 5126,
      "count": 744,
      "max": [
        -19.01555824279785,
        203.20004272460938,
        845.4998779296875
      ],
      "min": [
        -23.984769821166992,
        197.20004272460938,
        840.5001220703125
      ],
      "type": "VEC3"
    },
    {
      "bufferView": 10,
      "componentType": 5126,
      "count": 744,
      "max": [
        0.9975102543830872,
        1,
        0.9995301961898804
      ],
      "min": [
        -0.9975102543830872,
        -1,
        -0.9995301961898804
      ],
      "type": "VEC3"
    },
    {
      "bufferView": 11,
      "componentType": 5123,
      "count": 2436,
      "max": [
        743
      ],
      "min": [
        0
      ],
      "type": "SCALAR"
    },
    {
      "bufferView": 12,
      "componentType": 5126,
      "count": 744,
      "max": [
        23.98444175720215,
        203.20004272460938,
        845.4998779296875
      ],
      "min": [
        19.015230178833008,
        197.20004272460938,
        840.5001220703125
      ],
      "type": "VEC3"
    },
    {
      "bufferView": 13,
      "componentType": 5126,
      "count": 744,
      "max": [
        0.9975102543830872,
        1,
        0.9995301961898804
      ],
      "min": [
        -0.9975102543830872,
        -1,
        -0.9995301961898804
      ],
      "type": "VEC3"
    },
    {
      "bufferView": 14,
      "componentType": 5123,
      "count": 2436,
      "max": [
        743
      ],
      "min": [
        0
      ],
      "type": "SCALAR"
    }
  ],
  "materials": [
    {
      "pbrMetallicRoughness": {
        "baseColorFactor": [
          0.6038273388475408,
          0.6038273388475408,
          0.6038273388475408,
          1
        ],
        "metallicFactor": 0,
        "roughnessFactor": 0.3
      },
      "doubleSided": true,
      "name": "Mat_1"
    },
    {
      "pbrMetallicRoughness": {
        "baseColorFactor": [
          0.6038273572921753,
          0.6038273572921753,
          0.6038273572921753,
          1
        ],
        "metallicFactor": 0,
        "roughnessFactor": 0.3
      },
      "doubleSided": true,
      "name": "Mat_2"
    },
    {
      "pbrMetallicRoughness": {
        "baseColorFactor": [
          0.6038273572921753,
          0.6038273572921753,
          0.6038273572921753,
          1
        ],
        "metallicFactor": 0,
        "roughnessFactor": 0.3
      },
      "doubleSided": true,
      "name": "Mat_3"
    },
    {
      "pbrMetallicRoughness": {
        "baseColorFactor": [
          0.6038273572921753,
          0.6038273572921753,
          0.6038273572921753,
          1
        ],
        "metallicFactor": 0,
        "roughnessFactor": 0.3
      },
      "doubleSided": true,
      "name": "Mat_4"
    },
    {
      "pbrMetallicRoughness": {
        "baseColorFactor": [
          0.6038273572921753,
          0.6038273572921753,
          0.6038273572921753,
          1
        ],
        "metallicFactor": 0,
        "roughnessFactor": 0.3
      },
      "doubleSided": true,
      "name": "Mat_5"
    }
  ],
  "meshes": [
    {
      "primitives": [
        {
          "mode": 4,
          "attributes": {
            "POSITION": 0,
            "NORMAL": 1
          },
          "indices": 2,
          "material": 0
        }
      ]
    },
    {
      "primitives": [
        {
          "mode": 4,
          "attributes": {
            "POSITION": 3,
            "NORMAL": 4
          },
          "indices": 5,
          "material": 1
        }
      ]
    },
    {
      "primitives": [
        {
          "mode": 4,
          "attributes": {
            "POSITION": 6,
            "NORMAL": 7
          },
          "indices": 8,
          "material": 2
        }
      ]
    },
    {
      "primitives": [
        {
          "mode": 4,
          "attributes": {
            "POSITION": 9,
            "NORMAL": 10
          },
          "indices": 11,
          "material": 3
        }
      ]
    },
    {
      "primitives": [
        {
          "mode": 4,
          "attributes": {
            "POSITION": 12,
            "NORMAL": 13
          },
          "indices": 14,
          "material": 4
        }
      ]
    }
  ]
}